<svg width="48" height="50" viewBox="0 0 48 50" fill="none" xmlns="http://www.w3.org/2000/svg">
<path d="M3.92969 30.7656H3.42969V31.2656V35.4888C3.42969 38.3459 5.74102 40.6641 8.59453 40.6641H39.4065C42.26 40.6641 44.5714 38.3459 44.5714 35.4888V31.2656V30.7656H44.0714H3.92969Z" fill="#F6A230" stroke="#53180F"/>
<path d="M25.6957 31.7053L25.4576 30.7656H6.82812L6.59002 31.7053L15.9047 36.7497L16.1428 36.8787L16.3809 36.7497L25.6957 31.7053Z" fill="#FFE285" stroke="#53180F"/>
<mask id="path-3-outside-1_1025_1921" maskUnits="userSpaceOnUse" x="1.63281" y="21.8594" width="45" height="7" fill="black">
<rect fill="white" x="1.63281" y="21.8594" width="45" height="7"/>
<path d="M9.33328 22.8594H3.9261C3.21179 22.8594 2.63281 23.4397 2.63281 24.1555C2.63281 24.8714 3.21179 25.4518 3.9261 25.4518C7.27103 25.4518 7.27103 27.061 10.616 27.061C13.9609 27.061 13.9608 25.4518 17.3058 25.4518C20.6509 25.4518 20.6509 27.061 23.9961 27.061C23.9989 27.061 24.0016 27.0609 24.0044 27.0609C24.0072 27.0609 24.0099 27.061 24.0127 27.061C27.3578 27.061 27.3578 25.4518 30.7029 25.4518C34.0478 25.4518 34.0478 27.061 37.3928 27.061C40.7377 27.061 40.7376 25.4518 44.0827 25.4518C44.797 25.4518 45.3759 24.8714 45.3759 24.1555C45.3759 23.4397 44.797 22.8594 44.0827 22.8594H24.0044H11.2681"/>
</mask>
<path d="M9.33328 22.8594H3.9261C3.21179 22.8594 2.63281 23.4397 2.63281 24.1555C2.63281 24.8714 3.21179 25.4518 3.9261 25.4518C7.27103 25.4518 7.27103 27.061 10.616 27.061C13.9609 27.061 13.9608 25.4518 17.3058 25.4518C20.6509 25.4518 20.6509 27.061 23.9961 27.061C23.9989 27.061 24.0016 27.0609 24.0044 27.0609C24.0072 27.0609 24.0099 27.061 24.0127 27.061C27.3578 27.061 27.3578 25.4518 30.7029 25.4518C34.0478 25.4518 34.0478 27.061 37.3928 27.061C40.7377 27.061 40.7376 25.4518 44.0827 25.4518C44.797 25.4518 45.3759 24.8714 45.3759 24.1555C45.3759 23.4397 44.797 22.8594 44.0827 22.8594H24.0044H11.2681" fill="#08AA6E"/>
<path d="M9.33328 21.8594H3.9261V23.8594H9.33328V21.8594ZM3.9261 21.8594C2.65743 21.8594 1.63281 22.8895 1.63281 24.1555H3.63281C3.63281 23.9899 3.76615 23.8594 3.9261 23.8594V21.8594ZM1.63281 24.1555C1.63281 25.4215 2.6573 26.4518 3.9261 26.4518V24.4518C3.76629 24.4518 3.63281 24.3213 3.63281 24.1555H1.63281ZM3.9261 26.4518C5.38048 26.4518 6.05782 26.7824 6.83749 27.1575C7.73029 27.5871 8.72542 28.061 10.616 28.061V26.061C9.16158 26.061 8.48424 25.7304 7.70457 25.3553C6.81177 24.9257 5.81664 24.4518 3.9261 24.4518V26.4518ZM10.616 28.061C12.5065 28.061 13.5016 27.5871 14.3944 27.1575C15.1741 26.7824 15.8514 26.4518 17.3058 26.4518V24.4518C15.4152 24.4518 14.4201 24.9257 13.5273 25.3553C12.7477 25.7304 12.0703 26.061 10.616 26.061V28.061ZM17.3058 26.4518C18.7603 26.4518 19.4377 26.7824 20.2174 27.1575C21.1103 27.5871 22.1054 28.061 23.9961 28.061V26.061C22.5416 26.061 21.8642 25.7304 21.0845 25.3553C20.1916 24.9257 19.1965 24.4518 17.3058 24.4518V26.4518ZM23.9961 28.061C24.0069 28.061 24.0159 28.0609 24.0217 28.0607C24.027 28.0606 24.0317 28.0604 24.0317 28.0604C24.0331 28.0604 24.0298 28.0605 24.0259 28.0606C24.0214 28.0607 24.0139 28.0609 24.0044 28.0609V26.0609C23.9935 26.0609 23.9845 26.061 23.9787 26.0612C23.9734 26.0613 23.9687 26.0614 23.9687 26.0614C23.9673 26.0615 23.9706 26.0614 23.9746 26.0613C23.979 26.0612 23.9866 26.061 23.9961 26.061V28.061ZM24.0044 28.0609C23.9949 28.0609 23.9873 28.0607 23.9829 28.0606C23.9789 28.0605 23.9756 28.0604 23.977 28.0604C23.977 28.0604 23.9817 28.0606 23.987 28.0607C23.9928 28.0609 24.0018 28.061 24.0127 28.061V26.061C24.0222 26.061 24.0297 26.0612 24.0342 26.0613C24.0381 26.0614 24.0414 26.0615 24.0401 26.0614C24.0401 26.0614 24.0354 26.0613 24.03 26.0612C24.0242 26.061 24.0153 26.0609 24.0044 26.0609V28.0609ZM24.0127 28.061C25.9033 28.061 26.8985 27.5871 27.7913 27.1575C28.571 26.7824 29.2484 26.4518 30.7029 26.4518V24.4518C28.8123 24.4518 27.8171 24.9257 26.9243 25.3553C26.1446 25.7304 25.4672 26.061 24.0127 26.061V28.061ZM30.7029 26.4518C32.1573 26.4518 32.8346 26.7824 33.6143 27.1575C34.5071 27.5871 35.5022 28.061 37.3928 28.061V26.061C35.9384 26.061 35.2611 25.7304 34.4814 25.3553C33.5886 24.9257 32.5935 24.4518 30.7029 24.4518V26.4518ZM37.3928 28.061C39.2833 28.061 40.2784 27.5871 41.1712 27.1575C41.9509 26.7824 42.6282 26.4518 44.0827 26.4518V24.4518C42.1921 24.4518 41.1969 24.9257 40.3041 25.3553C39.5245 25.7304 38.8472 26.061 37.3928 26.061V28.061ZM44.0827 26.4518C45.3515 26.4518 46.3759 25.4215 46.3759 24.1555H44.3759C44.3759 24.3213 44.2425 24.4518 44.0827 24.4518V26.4518ZM46.3759 24.1555C46.3759 22.8895 45.3513 21.8594 44.0827 21.8594V23.8594C44.2426 23.8594 44.3759 23.9899 44.3759 24.1555H46.3759ZM44.0827 21.8594H24.0044V23.8594H44.0827V21.8594ZM24.0044 21.8594H11.2681V23.8594H24.0044V21.8594Z" fill="#53180F" mask="url(#path-3-outside-1_1025_1921)"/>
<path d="M43.4042 24.9877L43.3427 24.9777L43.2807 24.983C42.0023 25.0928 41.2314 25.4637 40.5266 25.8027C40.4571 25.8362 40.3882 25.8693 40.3195 25.9019C39.5898 26.2478 38.8333 26.5585 37.3954 26.5585C35.8369 26.5585 35.08 26.1943 34.275 25.807L34.2673 25.8033C33.4027 25.3874 32.487 24.9492 30.7055 24.9492C28.9239 24.9492 28.0082 25.3874 27.1437 25.8033L27.136 25.807C26.3319 26.1938 25.5758 26.5576 24.021 26.5585L24.0208 26.5585L24.0069 26.5583L23.9931 26.5585L23.9928 26.5585C22.4382 26.5576 21.6822 26.1938 20.878 25.807L20.8703 25.8033C20.0058 25.3874 19.09 24.9492 17.3084 24.9492C15.5269 24.9492 14.6112 25.3874 13.7466 25.8033L13.7389 25.807C12.9339 26.1943 12.1769 26.5585 10.6185 26.5585C9.17884 26.5585 8.42221 26.247 7.69144 25.9005C7.62369 25.8684 7.55574 25.8357 7.48715 25.8027C6.78025 25.4626 6.00721 25.0908 4.7225 24.9822L4.66117 24.977L4.60042 24.9868C2.97913 25.2495 1.74219 26.6569 1.74219 28.3542C1.74219 30.2374 3.26571 31.766 5.14741 31.766H42.8516C44.7333 31.766 46.2568 30.2374 46.2568 28.3542C46.2569 26.6588 45.0228 25.2527 43.4042 24.9877ZM24.0269 26.5586L24.025 26.5586L24.0269 26.5586ZM23.987 26.5586C23.986 26.5587 23.9873 26.5586 23.9889 26.5586L23.987 26.5586Z" fill="#D53349" stroke="#53180F"/>
<mask id="path-6-outside-2_1025_1921" maskUnits="userSpaceOnUse" x="2.92188" y="8.52344" width="43" height="16" fill="black">
<rect fill="white" x="2.92188" y="8.52344" width="43" height="16"/>
<path d="M11.2712 22.8585H44.0784C44.0784 15.4937 38.1215 9.52344 30.7734 9.52344H17.2269C9.87887 9.52344 3.92188 15.4937 3.92188 22.8585H9.33624"/>
</mask>
<path d="M11.2712 22.8585H44.0784C44.0784 15.4937 38.1215 9.52344 30.7734 9.52344H17.2269C9.87887 9.52344 3.92188 15.4937 3.92188 22.8585H9.33624" fill="#F6A230"/>
<path d="M44.0784 22.8585V23.8585H45.0784V22.8585H44.0784ZM3.92188 22.8585H2.92188V23.8585H3.92188V22.8585ZM11.2712 23.8585H44.0784V21.8585H11.2712V23.8585ZM45.0784 22.8585C45.0784 14.9435 38.6759 8.52344 30.7734 8.52344V10.5234C37.5671 10.5234 43.0784 16.0439 43.0784 22.8585H45.0784ZM30.7734 8.52344H17.2269V10.5234H30.7734V8.52344ZM17.2269 8.52344C9.32447 8.52344 2.92188 14.9435 2.92188 22.8585H4.92188C4.92188 16.0439 10.4333 10.5234 17.2269 10.5234V8.52344ZM3.92188 23.8585H9.33624V21.8585H3.92188V23.8585Z" fill="#53180F" mask="url(#path-6-outside-2_1025_1921)"/>
<path d="M18.4396 11.7656H16.3594V13.1007H18.4396V11.7656Z" fill="#53180F"/>
<path d="M21.7443 14.6719H19.6641V16.007H21.7443V14.6719Z" fill="#53180F"/>
<path d="M15.1427 14.6719H13.0625V16.007H15.1427V14.6719Z" fill="#53180F"/>
<path d="M34.9396 14.6719H32.8594V16.007H34.9396V14.6719Z" fill="#53180F"/>
<path d="M28.338 14.6719H26.2578V16.007H28.338V14.6719Z" fill="#53180F"/>
<path d="M25.0412 11.7656H22.9609V13.1007H25.0412V11.7656Z" fill="#53180F"/>
<path d="M31.6427 11.7656H29.5625V13.1007H31.6427V11.7656Z" fill="#53180F"/>
</svg>
